PathFileType	4	(X/Y/Z)	/Users/itak/Documents/Research/Walk-IL/dataset/trc/00339_00011.trc
DataRate	CameraRate	NumFrames	NumMarkers	Units	OrigDataRate	OrigDataStartFrame	OrigNumFrames
100.000000	100.000000	4	53	mm	100.000000	434	695
Frame#	Time	RPSI			LPSI			L3			STRN			T10			C7			CLAV			RBAK			LBAK			LSHO			LUPA			LAEL			LAOL			LWTS			LWPS			LFRA			LIFD			LHPS			LHTS			RSHO			RUPA			RAEL			RAOL			RWTS			RWPS			RFRA			RIFD			RHTS			RHPS			RBHD			LFHD			RFHD			LBHD			LHIP			RHIP			RASI			LASI			LKNE			LTHI			LANK			LTIP			LTOE			LMT1			LMT5			LHEE			RKNE			RTHI			RANK			RTIP			RTOE			RMT5			RHEE			RMT1			
		X1	Y1	Z1	X2	Y2	Z2	X3	Y3	Z3	X4	Y4	Z4	X5	Y5	Z5	X6	Y6	Z6	X7	Y7	Z7	X8	Y8	Z8	X9	Y9	Z9	X10	Y10	Z10	X11	Y11	Z11	X12	Y12	Z12	X13	Y13	Z13	X14	Y14	Z14	X15	Y15	Z15	X16	Y16	Z16	X17	Y17	Z17	X18	Y18	Z18	X19	Y19	Z19	X20	Y20	Z20	X21	Y21	Z21	X22	Y22	Z22	X23	Y23	Z23	X24	Y24	Z24	X25	Y25	Z25	X26	Y26	Z26	X27	Y27	Z27	X28	Y28	Z28	X29	Y29	Z29	X30	Y30	Z30	X31	Y31	Z31	X32	Y32	Z32	X33	Y33	Z33	X34	Y34	Z34	X35	Y35	Z35	X36	Y36	Z36	X37	Y37	Z37	X38	Y38	Z38	X39	Y39	Z39	X40	Y40	Z40	X41	Y41	Z41	X42	Y42	Z42	X43	Y43	Z43	X44	Y44	Z44	X45	Y45	Z45	X46	Y46	Z46	X47	Y47	Z47	X48	Y48	Z48	X49	Y49	Z49	X50	Y50	Z50	X51	Y51	Z51	X52	Y52	Z52	X53	Y53	Z53	

435	4.34	-197.45849609375	957.3225708007812	-600.2462158203125	-141.4558258056641	953.95068359375	-483.302734375	-161.3732604980469	1019.720153808594	-544.3744506835938	-358.4502563476562	1208.491455078125	-424.3600158691406	-146.3466491699219	1138.588256835938	-538.3045654296875	-168.9451141357422	1387.414672851562	-499.0028991699219	-310.7776489257812	1331.66943359375	-436.1146240234375	-156.4971923828125	1252.35791015625	-585.3416137695312	-111.8319244384766	1346.603881835938	-416.3762512207031	-163.2156219482422	1359.772583007812	-327.1666564941406	-117.4917602539062	1238.640258789062	-280.1813049316406	-133.1016693115234	1035.416015625	-261.6712951660156	-100.2597274780273	1019.987487792969	-339.0453491210938	-295.1271057128906	835.5704956054688	-253.6898040771484	-241.9617919921875	808.042724609375	-216.5284881591797	-162.7026519775391	938.1113891601562	-245.7992401123047	-352.3208618164062	686.0093383789062	-247.9313507080078	-263.3855895996094	741.3006591796875	-219.9899139404297	-323.39111328125	764.451416015625	-229.3014831542969	-290.7563781738281	1379.66748046875	-619.2760620117188	-306.7392883300781	1316.9912109375	-683.4341430664062	-319.6646423339844	1055.405517578125	-738.1932373046875	-263.5627136230469	1039.536254882812	-663.7708129882812	-409.0363159179688	818.0642700195312	-704.7801513671875	-392.8749389648438	816.5643920898438	-779.1151123046875	-345.2598266601562	989.7408447265625	-751.3603515625	-400.8779602050781	646.5701904296875	-727.5701293945312	-426.9960327148438	714.4871826171875	-723.6417236328125	-396.0047912597656	728.2943725585938	-783.477294921875	-288.4122619628906	1601.781372070312	-524.99072265625	-337.6342468261719	1576.635009765625	-324.0736083984375	-397.1395263671875	1584.399291992188	-405.4718627929688	-182.8601531982422	1590.993286132812	-427.2360229492188	-177.778564453125	895.3202514648438	-352.7888488769531	-322.0048217773438	916.0017700195312	-663.0315551757812	-393.8930969238281	949.1428833007812	-578.5145874023438	-309.600341796875	929.2715454101562	-354.3616943359375	-307.1445617675781	442.1499633789062	-415.443115234375	-277.9919738769531	579.6615600585938	-379.1929626464844	-279.8975830078125	44.78659820556641	-550.10693359375	-294.7984313964844	224.3296356201172	-472.0269470214844	-482.7521667480469	41.3688850402832	-484.4628601074219	-447.8203430175781	26.47636604309082	-557.4036254882812	-376.8305969238281	41.55506134033203	-470.7514953613281	-288.0393981933594	42.43902206420898	-624.9085083007812	-485.78662109375	488.4441528320312	-627.1967163085938	-443.9486999511719	730.6796875	-637.5319213867188	-194.4835662841797	204.5824432373047	-755.6103515625	-433.0838012695312	384.8512878417969	-652.2081909179688	-301.7033386230469	47.08571624755859	-698.203125	-248.28369140625	118.5534973144531	-772.0714111328125	-156.0338287353516	239.4872131347656	-710.6513671875	-256.36962890625	83.23907470703125	-660.369384765625	
436	4.350000000000001	-206.4892730712891	957.7955932617188	-598.6586303710938	-147.7132263183594	954.17919921875	-483.0548400878906	-168.8806304931641	1020.265930175781	-543.2308349609375	-363.7793273925781	1208.826293945312	-418.7533264160156	-153.6244201660156	1139.184814453125	-536.5548095703125	-175.8315124511719	1387.8671875	-496.5571594238281	-316.4408264160156	1332.094848632812	-431.3005676269531	-164.6622161865234	1252.9951171875	-583.1363525390625	-117.1628494262695	1347.182739257812	-414.9882202148438	-167.0691223144531	1360.340942382812	-324.9362487792969	-120.9134750366211	1239.157592773438	-278.3266296386719	-137.5879211425781	1036.0576171875	-258.0936584472656	-105.6895294189453	1019.86669921875	-335.8233032226562	-304.0964965820312	840.7651977539062	-246.9656829833984	-251.3590393066406	812.0523071289062	-210.1536865234375	-169.0386962890625	939.825439453125	-241.2841949462891	-365.5469360351562	692.9271850585938	-239.3542022705078	-274.7503356933594	745.9197387695312	-212.8549957275391	-334.0129089355469	770.6896362304688	-221.5855712890625	-299.5416564941406	1380.171752929688	-614.7978515625	-316.2664794921875	1317.50537109375	-678.7852783203125	-327.5617065429688	1055.739990234375	-733.1177368164062	-270.6156616210938	1040.433837890625	-659.2034301757812	-414.5301818847656	817.66845703125	-698.9002075195312	-398.9346618652344	816.2568969726562	-773.318115234375	-352.6945495605469	989.8811645507812	-746.048583984375	-404.8942565917969	646.1751708984375	-721.6559448242188	-431.5622863769531	713.7993774414062	-717.5126953125	-401.2084350585938	727.9713745117188	-777.6251220703125	-295.6528625488281	1602.123901367188	-520.7271728515625	-341.9602355957031	1577.072021484375	-319.0599975585938	-402.6672668457031	1584.714721679688	-399.6768798828125	-188.6923065185547	1591.54443359375	-424.4578552246094	-180.6147155761719	895.2449340820312	-351.9661254882812	-332.6567077636719	917.0132446289062	-658.1903686523438	-402.2831115722656	950.0535278320312	-571.7210083007812	-312.7000732421875	929.1829223632812	-349.674560546875	-307.4272155761719	441.8413696289062	-414.1702880859375	-278.6848449707031	579.5672607421875	-378.2549743652344	-279.8746032714844	44.74586868286133	-550.0659790039062	-294.6860046386719	224.3184051513672	-471.66064453125	-482.7345886230469	41.3504524230957	-484.4457092285156	-447.8110656738281	26.51684379577637	-557.3607788085938	-376.80126953125	41.49419403076172	-470.7021179199219	-287.8653259277344	42.6712760925293	-624.7919311523438	-500.5159301757812	491.0636901855469	-614.9722900390625	-455.8410339355469	732.8607177734375	-629.1248168945312	-221.2143707275391	197.4371795654297	-748.7242431640625	-451.2144165039062	386.073974609375	-640.6104125976562	-336.314697265625	47.31632614135742	-686.8265380859375	-280.8155212402344	114.8782424926758	-762.7211303710938	-179.6620635986328	230.6626892089844	-705.1819458007812	-287.6776123046875	80.66748046875	-650.5560913085938	
437	4.36	-215.5225830078125	958.1744995117188	-596.9856567382812	-154.0023803710938	954.301025390625	-482.7710266113281	-176.2680969238281	1020.820678710938	-542.0308837890625	-369.0432434082031	1209.041748046875	-413.0750732421875	-160.9592895507812	1139.706665039062	-534.6849975585938	-182.705322265625	1388.25048828125	-494.0039672851562	-322.0556030273438	1332.401123046875	-426.3933410644531	-172.8594360351562	1253.524658203125	-580.80517578125	-122.5238037109375	1347.656005859375	-413.5060119628906	-170.9250793457031	1360.796875	-322.6448059082031	-124.3341598510742	1239.534790039062	-276.4324035644531	-141.9992523193359	1036.591064453125	-254.533203125	-111.0590057373047	1019.664733886719	-332.5988464355469	-312.654296875	845.7802124023438	-240.2454833984375	-260.3307800292969	815.9287719726562	-203.7976989746094	-175.1767730712891	941.4039306640625	-236.7805480957031	-378.0789489746094	699.706298828125	-230.9741516113281	-285.5811157226562	750.4359130859375	-205.8641052246094	-344.1040954589844	776.7066040039062	-213.9766235351562	-308.3164672851562	1380.596801757812	-610.157470703125	-325.7438354492188	1317.985595703125	-674.0057373046875	-335.472900390625	1056.084838867188	-728.1355590820312	-277.6815490722656	1041.28076171875	-654.7623901367188	-420.2407836914062	817.4190063476562	-693.0708618164062	-405.2503356933594	816.0052490234375	-767.5615234375	-360.1685180664062	990.034912109375	-740.8372802734375	-409.6371459960938	645.932373046875	-715.6929931640625	-436.6487426757812	713.3208618164062	-711.393798828125	-406.8659057617188	727.7194213867188	-771.7548828125	-302.8073425292969	1602.378540039062	-516.3990478515625	-346.1831970214844	1577.476440429688	-313.9998474121094	-408.0968933105469	1584.9921875	-393.8448486328125	-194.4609527587891	1592.006103515625	-421.6141052246094	-183.5911407470703	895.0291137695312	-351.146484375	-343.2306823730469	917.9247436523438	-653.2418212890625	-410.4630126953125	950.8540649414062	-564.8809204101562	-315.7809448242188	928.967529296875	-345.1008605957031	-307.7064819335938	441.5604858398438	-412.9573974609375	-279.4523315429688	579.401611328125	-377.4191589355469	-279.8672485351562	44.73523330688477	-550.0393676757812	-294.5852355957031	224.3199768066406	-471.3412170410156	-482.7459411621094	41.33637619018555	-484.4327087402344	-447.8118591308594	26.57144927978516	-557.3035278320312	-376.7836608886719	41.44429016113281	-470.6533203125	-287.70263671875	42.92295837402344	-624.69970703125	-514.4717407226562	493.5503540039062	-602.54736328125	-467.4437255859375	734.9111328125	-620.5216064453125	-248.4394226074219	189.6954345703125	-740.9718017578125	-468.8236083984375	387.0523986816406	-628.6497802734375	-370.7929382324219	47.55779266357422	-674.072509765625	-313.5272521972656	110.9297256469727	-752.20654296875	-203.797119140625	221.1064758300781	-699.0365600585938	-318.8718566894531	77.92240905761719	-639.5272827148438	
438	4.37	-224.5694732666016	958.4856567382812	-595.2161254882812	-160.3395385742188	954.365234375	-482.4415893554688	-183.5334930419922	1021.400512695312	-540.782958984375	-374.246826171875	1209.13623046875	-407.3384399414062	-168.3453216552734	1140.147705078125	-532.6996459960938	-189.5598297119141	1388.56787109375	-491.3423767089844	-327.6297912597656	1332.586669921875	-421.3988342285156	-181.0865936279297	1253.94677734375	-578.3508911132812	-127.9260787963867	1348.017578125	-411.9232177734375	-174.7916412353516	1361.139404296875	-320.2844848632812	-127.7677612304688	1239.771850585938	-274.4906311035156	-146.3530578613281	1037.0224609375	-250.9981689453125	-116.3849792480469	1019.368957519531	-329.3531188964844	-320.7971496582031	850.5634765625	-233.5564727783203	-268.886962890625	819.6397094726562	-197.4743347167969	-181.1299438476562	942.8379516601562	-232.2968444824219	-389.9285888671875	706.2803955078125	-222.7794494628906	-295.8780212402344	754.8032836914062	-199.0263366699219	-353.7115783691406	782.46435546875	-206.4986572265625	-317.0776672363281	1380.939819335938	-605.3553466796875	-335.1758728027344	1318.430053710938	-669.093017578125	-343.4246520996094	1056.433959960938	-723.234375	-284.7664184570312	1042.07177734375	-650.4560546875	-426.1957092285156	817.2891235351562	-687.2626342773438	-411.8376770019531	815.8005981445312	-761.8270263671875	-367.7129516601562	990.195068359375	-735.7079467773438	-415.0847473144531	645.8116455078125	-709.6824340820312	-442.2347106933594	713.0227661132812	-705.2714233398438	-412.9927062988281	727.525146484375	-765.8646850585938	-309.8787841796875	1602.542724609375	-512.0027465820312	-350.3279113769531	1577.838012695312	-308.8983764648438	-413.4357604980469	1585.224609375	-387.9739379882812	-200.1753234863281	1592.370239257812	-418.6960144042969	-186.7105865478516	894.735107421875	-350.339599609375	-353.7340087890625	918.736083984375	-648.1897583007812	-418.4866027832031	951.5509643554688	-558.0139770507812	-318.8645935058594	928.6505737304688	-340.6342468261719	-308.0338439941406	441.3123474121094	-411.7808227539062	-280.3426513671875	579.1798095703125	-376.6636657714844	-279.8783569335938	44.75161743164062	-550.027099609375	-294.5202331542969	224.3387145996094	-471.0481262207031	-482.7844543457031	41.33029937744141	-484.4236145019531	-447.8268127441406	26.64518356323242	-557.2269897460938	-376.7761535644531	41.40313339233398	-470.6001586914062	-287.5671081542969	43.18313217163086	-624.644287109375	-527.6498413085938	495.8602905273438	-589.9682006835938	-478.76318359375	736.7996215820312	-611.7317504882812	-276.116943359375	181.4518280029297	-732.2798461914062	-485.8816833496094	387.7708740234375	-616.34375	-404.9195861816406	47.8061408996582	-659.8896484375	-346.2725524902344	106.7377624511719	-740.453369140625	-228.4289398193359	210.9289093017578	-692.152587890625	-349.8147277832031	75.07701873779297	-627.2210083007812	
